<?xml version="1.0" encoding="UTF-8"?>
<svg version="1.1" xmlns="http://www.w3.org/2000/svg" width="512" height="512">
<path d="M0 0 C4.02293608 2.68420123 8.08789096 5.30354712 12.14697266 7.93261719 C13.84122119 9.03381342 15.53523016 10.13537832 17.22900391 11.23730469 C22.26357145 14.51164822 27.29894699 17.78474738 32.33447266 21.05761719 C34.00114304 22.1409448 35.66780971 23.22427813 37.33447266 24.30761719 C38.15947266 24.84386719 38.98447266 25.38011719 39.83447266 25.93261719 C55.66780599 36.22428385 71.50113932 46.51595052 87.33447266 56.80761719 C88.16035889 57.34435059 88.98624512 57.88108398 89.8371582 58.43408203 C91.49521563 59.51200577 93.15293348 60.59045205 94.81030273 61.66943359 C99.10598123 64.46502718 103.40809209 67.24990092 107.72119141 70.01855469 C108.60871094 70.59025391 109.49623047 71.16195312 110.41064453 71.75097656 C112.08812297 72.83123754 113.76764482 73.90833563 115.44970703 74.98144531 C120.9894222 78.55560464 126.18163107 82.44911684 131.33447266 86.55761719 C132.25357422 87.24984375 133.17267578 87.94207031 134.11962891 88.65527344 C145.47839657 98.41139311 153.2527508 114.78405602 154.50883055 129.61653018 C154.79035307 135.40146553 154.74315426 141.19108754 154.72265625 146.98120117 C154.72672817 148.92244765 154.73207351 150.86369181 154.73858643 152.80493164 C154.75219296 158.04672074 154.74698876 163.2883315 154.73744917 168.53012347 C154.72981682 174.0346591 154.73690817 179.53918016 154.74160767 185.04371643 C154.7470553 194.28608928 154.73990016 203.52839006 154.72558594 212.77075195 C154.70926622 223.43058917 154.71454707 234.09025416 154.73106515 244.7500872 C154.74471412 253.92839061 154.7465829 263.10664241 154.73874915 272.2849527 C154.73409073 277.75530413 154.73339703 283.22557482 154.74335861 288.69592094 C154.75207558 293.84164547 154.74592053 298.98714972 154.72867584 304.13285065 C154.72473593 306.01247608 154.7258018 307.8921203 154.73246384 309.77173805 C154.77509154 323.02907727 154.05418025 335.59407234 147.83447266 347.62011719 C147.49407959 348.28712646 147.15368652 348.95413574 146.80297852 349.64135742 C139.2546798 363.68169681 126.58766476 372.7276961 113.33447266 380.99511719 C111.38628055 382.2225447 109.43837505 383.45042721 107.49072266 384.67871094 C106.48267578 385.31276855 105.47462891 385.94682617 104.43603516 386.60009766 C99.21868418 389.8929755 94.02771577 393.22690073 88.83447266 396.55761719 C76.45507067 404.48702563 64.05271 412.38002352 51.64599609 420.26660156 C48.93779668 421.98830572 46.22980453 423.71033504 43.52197266 425.43261719 C42.62414062 426.00367188 41.72630859 426.57472656 40.80126953 427.16308594 C34.81296542 430.97421074 28.83248342 434.79738731 22.85595703 438.62695312 C18.6659905 441.31103089 14.47331968 443.99087096 10.28076172 446.67089844 C7.50106366 448.4509371 4.7260344 450.23804706 1.95166016 452.02636719 C-19.913761 466.06769919 -38.2244059 473.28803995 -64.34521484 468.70214844 C-74.06305526 466.42776026 -82.60284454 461.70571473 -90.85302734 456.24511719 C-92.7735315 454.99891747 -94.69410725 453.75282807 -96.61474609 452.50683594 C-97.60394043 451.86020996 -98.59313477 451.21358398 -99.61230469 450.54736328 C-104.7747012 447.1830956 -109.97235533 443.8740926 -115.16552734 440.55761719 C-117.27631437 439.20622639 -119.386992 437.85466471 -121.49755859 436.50292969 C-130.87454246 430.50177728 -140.27017931 424.52995974 -149.66552734 418.55761719 C-162.22803494 410.57200575 -174.78306316 402.57511477 -187.31323242 394.53881836 C-192.47084869 391.23288076 -197.63609719 387.94048386 -202.82177734 384.67871094 C-203.80597656 384.05802734 -204.79017578 383.43734375 -205.80419922 382.79785156 C-207.64155831 381.64025263 -209.48121424 380.48628679 -211.32373047 379.33691406 C-229.83486061 367.65846362 -242.54790736 354.00867095 -248.66552734 332.55761719 C-249.63121776 327.81720693 -249.81388863 323.20229321 -249.81269836 318.38221741 C-249.81637505 317.57504743 -249.82005174 316.76787744 -249.82383984 315.93624777 C-249.83482569 313.23979991 -249.83871187 310.54339066 -249.8425293 307.84692383 C-249.84879795 305.90980916 -249.8554451 303.97269568 -249.86244202 302.0355835 C-249.88344229 295.67965526 -249.8938427 289.3237269 -249.90380859 282.96777344 C-249.90785808 280.77458623 -249.91197505 278.58139916 -249.91615868 276.3882122 C-249.93520385 266.07950226 -249.94943462 255.77079944 -249.95777065 245.46207529 C-249.96753179 233.58894478 -249.9938249 221.71600125 -250.03427154 209.84293658 C-250.06450763 200.64944973 -250.07924673 191.45601625 -250.08255166 182.26248068 C-250.08489414 176.77962431 -250.09374956 171.29696784 -250.11901283 165.81416512 C-250.14242906 160.64879983 -250.14647266 155.48376414 -250.13625145 150.31835938 C-250.13575921 148.43311397 -250.1419864 146.54785159 -250.1558075 144.66265678 C-250.30545167 123.02249669 -245.30079509 104.56106235 -229.66552734 88.55761719 C-221.49998177 81.46553329 -212.10105339 75.85033831 -203 70.05078125 C-198.9359087 67.45132691 -194.89568569 64.81522907 -190.85302734 62.18261719 C-189.15907726 61.08096191 -187.46506647 59.97939997 -185.77099609 58.87792969 C-184.92714355 58.32911133 -184.08329102 57.78029297 -183.21386719 57.21484375 C-179.03156871 54.4950275 -174.84851431 51.7763744 -170.66552734 49.05761719 C-168.99885696 47.97428958 -167.33219029 46.89095624 -165.66552734 45.80761719 C-155.66552734 39.30761719 -145.66552734 32.80761719 -135.66552734 26.30761719 C-134.84028564 25.77120605 -134.01504395 25.23479492 -133.16479492 24.68212891 C-131.50058454 23.60040029 -129.83635931 22.5186945 -128.17211914 21.43701172 C-123.11793964 18.15196815 -118.06422481 14.86621204 -113.01123047 11.5793457 C-111.33210775 10.48781884 -109.65242634 9.39715091 -107.97216797 8.30737305 C-103.98814594 5.72302569 -100.01145887 3.1290615 -96.05224609 0.50683594 C-62.72715344 -21.49014247 -33.25755952 -22.30472708 0 0 Z M-55.91552734 36.18261719 C-57.46444908 37.19779112 -59.01395728 38.21207066 -60.56396484 39.22558594 C-61.3912207 39.76747559 -62.21847656 40.30936523 -63.07080078 40.86767578 C-67.53888302 43.77773085 -72.03970506 46.63605955 -76.54052734 49.49511719 C-77.47348633 50.08824707 -78.40644531 50.68137695 -79.36767578 51.29248047 C-86.06650486 55.54852089 -92.77551521 59.78830542 -99.48803711 64.02270508 C-109.23214972 70.17223716 -118.94750344 76.36697605 -128.66552734 82.55761719 C-139.4480033 89.42634275 -150.23168923 96.29292062 -161.04052734 103.12011719 C-162.17204224 103.83482178 -162.17204224 103.83482178 -163.32641602 104.56396484 C-168.09792737 107.57501399 -172.87855519 110.57121218 -177.66552734 113.55761719 C-173.65033118 116.90619778 -169.43582705 119.74700699 -165.04052734 122.55761719 C-164.29762451 123.03545654 -163.55472168 123.5132959 -162.78930664 124.00561523 C-155.77906804 128.50566296 -148.7333149 132.94948859 -141.68505859 137.38964844 C-136.33461866 140.76236102 -130.99958277 144.15907118 -125.66552734 147.55761719 C-118.84095954 151.90494818 -112.009593 156.24104601 -105.16552734 160.55761719 C-98.38527614 164.83455547 -91.61575908 169.12803083 -84.85302734 173.43261719 C-83.94625244 174.00915039 -83.03947754 174.58568359 -82.10522461 175.1796875 C-77.24751782 178.26990372 -72.39729032 181.37118759 -67.55615234 184.48730469 C-66.55946533 185.12684082 -65.56277832 185.76637695 -64.53588867 186.42529297 C-62.62462885 187.65194853 -60.71549945 188.88193187 -58.80883789 190.11572266 C-57.51393433 190.94547607 -57.51393433 190.94547607 -56.19287109 191.79199219 C-55.4373999 192.27893555 -54.68192871 192.76587891 -53.90356445 193.26757812 C-50.43648925 195.26990732 -50.43648925 195.26990732 -46.66552734 196.55761719 C-43.98094857 195.55557619 -43.98094857 195.55557619 -41.37646484 193.67480469 C-40.36237549 193.00819824 -39.34828613 192.3415918 -38.3034668 191.65478516 C-37.22669678 190.92146973 -36.14992676 190.1881543 -35.04052734 189.43261719 C-33.9118527 188.6834377 -32.78187337 187.9362203 -31.65063477 187.19091797 C-29.37599967 185.69033253 -27.1069288 184.18188082 -24.84179688 182.66699219 C-20.59863958 179.84909218 -16.29651307 177.13301024 -11.97802734 174.43261719 C-10.44894389 173.46977015 -8.92030124 172.50622274 -7.39208984 171.54199219 C-6.24401855 170.81786133 -6.24401855 170.81786133 -5.07275391 170.07910156 C-0.65998465 167.29001657 3.74344788 164.48626683 8.14697266 161.68261719 C9.06414062 161.09867188 9.98130859 160.51472656 10.92626953 159.91308594 C13.72916252 158.12817858 16.53185625 156.3429588 19.33447266 154.55761719 C30.58087198 147.39336003 41.83116466 140.23588375 53.10986328 133.12255859 C62.87001938 126.96357778 72.60153109 120.75948019 82.33447266 114.55761719 C79.02291224 111.83562335 75.66088295 109.3900344 72.04541016 107.08886719 C70.52427612 106.11796143 70.52427612 106.11796143 68.97241211 105.12744141 C67.89564209 104.44439941 66.81887207 103.76135742 65.70947266 103.05761719 C64.57937152 102.33794285 63.44940889 101.618051 62.31958008 100.89794922 C54.24754139 95.75697217 46.15707507 90.64506519 38.06103516 85.54199219 C28.19320654 79.31798913 18.3627295 73.03480477 8.52294922 66.76660156 C5.73114091 64.98831781 2.93912703 63.21035753 0.14697266 61.43261719 C-0.76439453 60.85229736 -1.67576172 60.27197754 -2.61474609 59.67407227 C-9.33007799 55.40073383 -16.05911497 51.14950048 -22.796875 46.91162109 C-26.73758306 44.42757212 -30.65893207 41.91803624 -34.55615234 39.36621094 C-35.34143311 38.85276123 -36.12671387 38.33931152 -36.93579102 37.81030273 C-38.4308501 36.83021021 -39.92333513 35.84617647 -41.4128418 34.85766602 C-48.08846345 30.48062196 -49.6314574 32.01251351 -55.91552734 36.18261719 Z M-198.66552734 160.55761719 C-199.03968297 182.28871077 -199.32162276 204.01927174 -199.49452209 225.75293541 C-199.57694642 235.84501331 -199.68925805 245.93508749 -199.87255859 256.02587891 C-200.03229502 264.82366492 -200.13531609 273.61999994 -200.17094326 282.41919577 C-200.19176545 287.07709234 -200.24048696 291.73083913 -200.35720825 296.38740158 C-200.46633593 300.77683424 -200.49922597 305.16043751 -200.47525024 309.55109787 C-200.47963085 311.1565531 -200.51119252 312.76221508 -200.57281494 314.36649323 C-200.76117636 319.52602196 -200.61779534 323.72869983 -198.66552734 328.55761719 C-194.71901805 332.63384872 -189.6875715 335.12608844 -184.63273239 337.57110715 C-181.7777975 339.00279417 -179.17734248 340.7119914 -176.51318359 342.47167969 C-175.09199219 343.38240234 -175.09199219 343.38240234 -173.64208984 344.31152344 C-172.68044922 344.92898438 -171.71880859 345.54644531 -170.72802734 346.18261719 C-168.56267793 347.57066168 -166.3973129 348.95868182 -164.23193359 350.34667969 C-163.14412598 351.04438477 -162.05631836 351.74208984 -160.93554688 352.4609375 C-155.68110953 355.8299914 -150.4231928 359.19360417 -145.16552734 362.55761719 C-143.08217626 363.89092279 -140.99884295 365.22425616 -138.91552734 366.55761719 C-137.88427734 367.21761719 -136.85302734 367.87761719 -135.79052734 368.55761719 C-126.41552734 374.55761719 -126.41552734 374.55761719 -123.28662109 376.56030273 C-121.21653349 377.88503574 -119.14622325 379.20942092 -117.07568359 380.53344727 C-112.23577598 383.62895879 -107.39803969 386.72769385 -102.56848145 389.83932495 C-100.86636247 390.93574611 -99.16351638 392.03102891 -97.46044922 393.12597656 C-95.33009397 394.49612205 -93.20109208 395.8683751 -91.07373047 397.24316406 C-90.10371094 397.86642578 -89.13369141 398.4896875 -88.13427734 399.13183594 C-87.29316406 399.67412842 -86.45205078 400.2164209 -85.58544922 400.77514648 C-83.07890293 402.30527144 -80.55192791 403.74781815 -77.98303223 405.16902161 C-77.17406746 405.61700009 -76.36510269 406.06497858 -75.53162384 406.52653217 C-74.915812 406.86679023 -74.30000015 407.20704828 -73.66552734 407.55761719 C-73.43186966 385.90468181 -73.25555695 364.25195442 -73.14740562 342.59801388 C-73.09585274 332.54351077 -73.02557711 322.48979118 -72.91113281 312.43579102 C-72.81142367 303.67210208 -72.74693704 294.90898056 -72.7246424 286.14474016 C-72.71161033 281.50426109 -72.68101542 276.86540516 -72.60822678 272.2254467 C-72.54023587 267.85583215 -72.51943143 263.4885053 -72.53445053 259.11841202 C-72.53170412 257.51673116 -72.51187076 255.91497219 -72.4734726 254.31374931 C-72.05377782 245.57517241 -72.05377782 245.57517241 -75.86145306 238.08126926 C-78.39469506 236.28342794 -80.86434552 234.88793793 -83.66552734 233.55761719 C-84.66656494 232.8944751 -85.66760254 232.23133301 -86.69897461 231.5480957 C-87.53485107 231.01627686 -88.37072754 230.48445801 -89.23193359 229.93652344 C-90.19873047 229.31970703 -91.16552734 228.70289063 -92.16162109 228.06738281 C-93.17353516 227.42478516 -94.18544922 226.7821875 -95.22802734 226.12011719 C-96.88227849 225.06553208 -98.53652742 224.01094348 -100.19064331 222.95614624 C-101.89295239 221.8709835 -103.59584752 220.78674524 -105.29882812 219.70263672 C-110.59316988 216.32946147 -115.87910362 212.94318235 -121.16552734 209.55761719 C-123.24881629 208.2242145 -125.33214972 206.89088132 -127.41552734 205.55761719 C-131.58219401 202.89095052 -135.74886068 200.22428385 -139.91552734 197.55761719 C-140.94766357 196.89705322 -141.9797998 196.23648926 -143.04321289 195.5559082 C-145.11760624 194.22828997 -147.19198783 192.90065338 -149.26635742 191.57299805 C-154.61137426 188.15206964 -159.95662148 184.73150205 -165.30224609 181.31152344 C-166.39214844 180.61414063 -167.48205078 179.91675781 -168.60498047 179.19824219 C-170.74022902 177.83209398 -172.87564092 176.46620103 -175.01123047 175.10058594 C-179.45027475 172.26096609 -183.88727759 169.41861101 -188.31005859 166.55371094 C-188.97561768 166.1230835 -189.64117676 165.69245605 -190.3269043 165.2487793 C-192.01398409 164.15579532 -193.69922267 163.05997071 -195.38427734 161.96386719 C-197.36076057 160.47015921 -197.36076057 160.47015921 -198.66552734 160.55761719 Z M97.64306641 165.83886719 C96.49318237 166.59453979 96.49318237 166.59453979 95.32006836 167.36547852 C94.47919678 167.92388428 93.6383252 168.48229004 92.77197266 169.05761719 C90.94181986 170.26031762 89.11106312 171.46209942 87.27978516 172.66308594 C86.30944336 173.30036621 85.33910156 173.93764648 84.33935547 174.59423828 C79.2979065 177.8883017 74.22250376 181.12890921 69.14697266 184.37011719 C68.09823975 185.04042969 67.04950684 185.71074219 65.96899414 186.40136719 C63.82615825 187.77090394 61.68317268 189.14020654 59.54003906 190.50927734 C54.30294743 193.85575098 49.06883943 197.20688377 43.83447266 200.55761719 C41.75115411 201.89097362 39.66782076 203.22430694 37.58447266 204.55761719 C36.55322266 205.21761719 35.52197266 205.87761719 34.45947266 206.55761719 C25.08447266 212.55761719 25.08447266 212.55761719 21.95410156 214.56103516 C19.88864819 215.88293825 17.82321817 217.20487784 15.7578125 218.52685547 C10.86654601 221.65748262 5.97503721 224.78772929 1.08270264 227.91668701 C-1.23377533 229.39825291 -3.55012045 230.88002643 -5.86645508 232.36181641 C-7.50572958 233.4103592 -9.14519669 234.45860084 -10.78466797 235.50683594 C-11.77402344 236.13976562 -12.76337891 236.77269531 -13.78271484 237.42480469 C-14.65524902 237.98280762 -15.5277832 238.54081055 -16.42675781 239.11572266 C-18.18337964 240.24708673 -19.92701905 241.39861166 -21.66552734 242.55761719 C-22.11531059 245.51450046 -22.11531059 245.51450046 -22.02629089 249.06216431 C-22.02885417 249.7376593 -22.03141744 250.41315428 -22.03405839 251.10911882 C-22.03901859 253.3833692 -22.02246745 255.65696265 -22.00610352 257.93115234 C-22.00525772 259.55704228 -22.00573145 261.18293336 -22.00743103 262.80882263 C-22.00829428 267.2322165 -21.99061543 271.65536795 -21.96970916 276.07870531 C-21.95099707 280.69783339 -21.94919624 285.31696658 -21.94563293 289.93612671 C-21.93629635 298.68739942 -21.9116608 307.43856013 -21.88158447 316.18978345 C-21.84809057 326.15093046 -21.83156707 336.11208272 -21.81649816 346.07327199 C-21.78511261 366.56811631 -21.73232084 387.0628597 -21.66552734 407.55761719 C-19.9285718 406.62073016 -18.19290249 405.68145831 -16.45776367 404.74121094 C-15.00772697 403.95701782 -15.00772697 403.95701782 -13.52839661 403.15698242 C-9.33851543 400.81627117 -5.34958609 398.21080181 -1.35302734 395.55761719 C0.39895507 394.40693039 2.15158231 393.25722491 3.90478516 392.10839844 C4.7997168 391.5213916 5.69464844 390.93438477 6.61669922 390.32958984 C11.06181559 387.43139953 15.54114317 384.5876636 20.02197266 381.74511719 C27.90646908 376.73902114 35.78176414 371.71897074 43.64697266 366.68261719 C44.68724609 366.01657471 45.72751953 365.35053223 46.79931641 364.66430664 C49.97785108 362.62897644 53.15619616 360.59335052 56.33447266 358.55761719 C60.56340746 355.84892159 64.79261578 353.14065371 69.02197266 350.43261719 C69.93309814 349.84883301 70.84422363 349.26504883 71.78295898 348.66357422 C72.71132568 348.06915527 73.63969238 347.47473633 74.59619141 346.86230469 C75.53323914 346.21651459 76.47028687 345.57072449 77.43572998 344.90536499 C80.41559437 342.97255131 83.4272291 341.68921834 86.72947693 340.39172363 C93.29227145 337.51142243 98.97255394 334.37920769 103.33447266 328.55761719 C107.12398328 317.57601886 105.96931456 305.26050327 105.56513929 293.81980181 C105.42664783 289.23348138 105.41461583 284.64677387 105.38858032 280.0586853 C105.32046673 271.38990219 105.14034977 262.72729653 104.91889155 254.06122243 C104.67211163 244.18771885 104.55181732 234.31390376 104.44159198 224.43807912 C104.21224911 204.14115649 103.82585541 183.84977732 103.33447266 163.55761719 C100.74771835 163.55761719 99.79526269 164.41289121 97.64306641 165.83886719 Z " fill="#4556DA" transform="translate(303.66552734375,29.4423828125)"/>
</svg>
